<svg width="166" height="42" viewBox="0 0 166 42" fill="none" xmlns="http://www.w3.org/2000/svg">
<rect width="20" height="20" rx="2" fill="#2F3A8F"/>
<rect x="22" width="20" height="20" rx="2" fill="#2F3A8F"/>
<rect x="22" y="22" width="20" height="20" rx="2" fill="#2F3A8F"/>
<rect y="22" width="20" height="20" rx="2" fill="#2F3A8F"/>
<path d="M37.0916 5.70685C37.2869 5.90211 37.2869 6.2187 37.0916 6.41396L33.8591 9.64645C33.6639 9.84171 33.6639 10.1583 33.8591 10.3536L37.0916 13.586C37.2869 13.7813 37.2869 14.0979 37.0916 14.2931L36.4855 14.8992C36.2903 15.0945 35.9737 15.0945 35.7784 14.8992L32.5459 11.6668C32.3507 11.4715 32.0341 11.4715 31.8388 11.6668L28.6063 14.8992C28.4111 15.0945 28.0945 15.0945 27.8992 14.8992L27.2931 14.2931C27.0979 14.0979 27.0979 13.7813 27.2931 13.586L30.5256 10.3536C30.7209 10.1583 30.7209 9.84171 30.5256 9.64645L27.2931 6.41396C27.0979 6.2187 27.0979 5.90211 27.2931 5.70685L27.8992 5.10076C28.0945 4.9055 28.4111 4.9055 28.6063 5.10076L31.8388 8.33325C32.0341 8.52851 32.3507 8.52851 32.5459 8.33325L35.7784 5.10076C35.9737 4.9055 36.2903 4.9055 36.4855 5.10076L37.0916 5.70685Z" fill="#CCD1E4"/>
<path d="M4 31.5C4 31.2239 4.22386 31 4.5 31H15.5C15.7761 31 16 31.2239 16 31.5V32.4992C16 32.7754 15.7761 32.9992 15.5 32.9992H4.5C4.22386 32.9992 4 32.7754 4 32.4992V31.5Z" fill="#CCD1E4"/>
<path d="M16 10.3571C16 10.6333 15.7761 10.8571 15.5 10.8571H11.3571C11.081 10.8571 10.8571 11.081 10.8571 11.3571V15.5C10.8571 15.7761 10.6333 16 10.3571 16H9.64286C9.36671 16 9.14286 15.7761 9.14286 15.5V11.3571C9.14286 11.081 8.919 10.8571 8.64286 10.8571H4.5C4.22386 10.8571 4 10.6333 4 10.3571V9.64286C4 9.36671 4.22386 9.14286 4.5 9.14286H8.64286C8.919 9.14286 9.14286 8.919 9.14286 8.64286V4.5C9.14286 4.22386 9.36671 4 9.64286 4H10.3571C10.6333 4 10.8571 4.22386 10.8571 4.5V8.64286C10.8571 8.919 11.081 9.14286 11.3571 9.14286H15.5C15.7761 9.14286 16 9.36671 16 9.64286V10.3571Z" fill="#CCD1E4"/>
<path d="M26.5 35.5C26.2239 35.5 26 35.2761 26 35V33.75C26 33.4739 26.2239 33.25 26.5 33.25H37.5C37.7761 33.25 38 33.4739 38 33.75V35C38 35.2761 37.7761 35.5 37.5 35.5H26.5ZM26.5 30.25C26.2239 30.25 26 30.0261 26 29.75V28.5C26 28.2239 26.2239 28 26.5 28H37.5C37.7761 28 38 28.2239 38 28.5V29.75C38 30.0261 37.7761 30.25 37.5 30.25H26.5Z" fill="#CCD1E4"/>
<rect x="47" width="3" height="42" rx="1.5" fill="#2F3A8F"/>
<path d="M54.7216 12.5455H58.5909L63.7727 25.1932H63.9773L69.1591 12.5455H73.0284V30H69.9943V18.0085H69.8324L65.0085 29.9489H62.7415L57.9176 17.983H57.7557V30H54.7216V12.5455ZM80.1023 30.2642C79.2727 30.2642 78.5256 30.1165 77.8608 29.821C77.2017 29.5199 76.679 29.0767 76.2926 28.4915C75.9119 27.9062 75.7216 27.1847 75.7216 26.3267C75.7216 25.5881 75.858 24.9773 76.1307 24.4943C76.4034 24.0114 76.7756 23.625 77.2472 23.3352C77.7188 23.0455 78.25 22.8267 78.8409 22.679C79.4375 22.5256 80.054 22.4148 80.6903 22.3466C81.4574 22.267 82.0795 22.196 82.5568 22.1335C83.0341 22.0653 83.3807 21.9631 83.5966 21.8267C83.8182 21.6847 83.929 21.4659 83.929 21.1705V21.1193C83.929 20.4773 83.7386 19.9801 83.358 19.6278C82.9773 19.2756 82.429 19.0994 81.7131 19.0994C80.9574 19.0994 80.358 19.2642 79.9148 19.5938C79.4773 19.9233 79.1818 20.3125 79.0284 20.7614L76.1477 20.3523C76.375 19.5568 76.75 18.892 77.2727 18.358C77.7955 17.8182 78.4347 17.4148 79.1903 17.1477C79.946 16.875 80.7813 16.7386 81.696 16.7386C82.3267 16.7386 82.9545 16.8125 83.5795 16.9602C84.2045 17.108 84.7756 17.3523 85.2926 17.6932C85.8097 18.0284 86.2244 18.4858 86.5369 19.0653C86.8551 19.6449 87.0142 20.3693 87.0142 21.2386V30H84.0483V28.2017H83.946C83.7585 28.5653 83.4943 28.9062 83.1534 29.2244C82.8182 29.5369 82.3949 29.7898 81.8835 29.983C81.3778 30.1705 80.7841 30.2642 80.1023 30.2642ZM80.9034 27.9972C81.5227 27.9972 82.0597 27.875 82.5142 27.6307C82.9688 27.3807 83.3182 27.0511 83.5625 26.642C83.8125 26.233 83.9375 25.7869 83.9375 25.304V23.7614C83.8409 23.8409 83.6761 23.9148 83.4432 23.983C83.2159 24.0511 82.9602 24.1108 82.6761 24.1619C82.392 24.2131 82.1108 24.2585 81.8324 24.2983C81.554 24.3381 81.3125 24.3722 81.108 24.4006C80.6477 24.4631 80.2358 24.5653 79.8722 24.7074C79.5085 24.8494 79.2216 25.0483 79.0114 25.304C78.8011 25.554 78.696 25.8778 78.696 26.2756C78.696 26.8438 78.9034 27.2727 79.3182 27.5625C79.733 27.8523 80.2614 27.9972 80.9034 27.9972ZM96.6534 16.9091V19.2955H89.1278V16.9091H96.6534ZM90.9858 13.7727H94.071V26.0625C94.071 26.4773 94.1335 26.7955 94.2585 27.017C94.3892 27.233 94.5597 27.3807 94.7699 27.4602C94.9801 27.5398 95.2131 27.5795 95.4688 27.5795C95.6619 27.5795 95.8381 27.5653 95.9972 27.5369C96.1619 27.5085 96.2869 27.483 96.3722 27.4602L96.892 29.8722C96.7273 29.929 96.4915 29.9915 96.1847 30.0597C95.8835 30.1278 95.5142 30.1676 95.0767 30.179C94.304 30.2017 93.608 30.0852 92.9886 29.8295C92.3693 29.5682 91.8778 29.1648 91.5142 28.6193C91.1563 28.0739 90.9801 27.392 90.9858 26.5739V13.7727ZM102.6 22.3295V30H99.5149V12.5455H102.532V19.1335H102.685C102.992 18.3949 103.467 17.8125 104.109 17.3864C104.756 16.9545 105.58 16.7386 106.58 16.7386C107.489 16.7386 108.282 16.929 108.958 17.3097C109.634 17.6903 110.157 18.2472 110.526 18.9801C110.901 19.7131 111.089 20.608 111.089 21.6648V30H108.004V22.142C108.004 21.2614 107.776 20.5767 107.322 20.0881C106.873 19.5937 106.242 19.3466 105.43 19.3466C104.884 19.3466 104.396 19.4659 103.964 19.7045C103.538 19.9375 103.202 20.2756 102.958 20.7188C102.719 21.1619 102.6 21.6989 102.6 22.3295ZM125.458 16.9091L120.796 30H117.387L112.725 16.9091H116.015L119.023 26.6335H119.16L122.177 16.9091H125.458ZM127.593 30V16.9091H130.678V30H127.593ZM129.144 15.0511C128.656 15.0511 128.235 14.8892 127.883 14.5653C127.531 14.2358 127.354 13.8409 127.354 13.3807C127.354 12.9148 127.531 12.5199 127.883 12.196C128.235 11.8665 128.656 11.7017 129.144 11.7017C129.638 11.7017 130.059 11.8665 130.406 12.196C130.758 12.5199 130.934 12.9148 130.934 13.3807C130.934 13.8409 130.758 14.2358 130.406 14.5653C130.059 14.8892 129.638 15.0511 129.144 15.0511ZM136.936 12.5455V30H133.851V12.5455H136.936ZM143.194 12.5455V30H140.109V12.5455H143.194ZM152.162 30.2557C150.849 30.2557 149.716 29.983 148.761 29.4375C147.813 28.8864 147.082 28.108 146.571 27.1023C146.06 26.0909 145.804 24.9006 145.804 23.5312C145.804 22.1847 146.06 21.0028 146.571 19.9858C147.088 18.9631 147.81 18.1676 148.736 17.5994C149.662 17.0256 150.75 16.7386 152 16.7386C152.807 16.7386 153.568 16.8693 154.284 17.1307C155.006 17.3864 155.642 17.7841 156.193 18.3239C156.75 18.8636 157.188 19.5511 157.506 20.3864C157.824 21.2159 157.983 22.2045 157.983 23.3523V24.2983H147.253V22.2188H155.026C155.02 21.6278 154.892 21.1023 154.642 20.642C154.392 20.1761 154.043 19.8097 153.594 19.5426C153.151 19.2756 152.634 19.142 152.043 19.142C151.412 19.142 150.858 19.2955 150.381 19.6023C149.903 19.9034 149.531 20.3011 149.264 20.7955C149.003 21.2841 148.869 21.821 148.864 22.4062V24.2216C148.864 24.983 149.003 25.6364 149.281 26.1818C149.56 26.7216 149.949 27.1364 150.449 27.4261C150.949 27.7102 151.534 27.8523 152.205 27.8523C152.653 27.8523 153.06 27.7898 153.423 27.6648C153.787 27.5341 154.102 27.3438 154.369 27.0938C154.636 26.8438 154.838 26.5341 154.974 26.1648L157.855 26.4886C157.673 27.25 157.327 27.9148 156.815 28.483C156.31 29.0455 155.662 29.483 154.872 29.7955C154.082 30.1023 153.179 30.2557 152.162 30.2557ZM162.494 30.1875C161.977 30.1875 161.533 30.0057 161.164 29.642C160.795 29.2784 160.613 28.8352 160.619 28.3125C160.613 27.8011 160.795 27.3636 161.164 27C161.533 26.6364 161.977 26.4545 162.494 26.4545C162.994 26.4545 163.428 26.6364 163.798 27C164.173 27.3636 164.363 27.8011 164.369 28.3125C164.363 28.6591 164.272 28.9744 164.096 29.2585C163.925 29.5426 163.698 29.7699 163.414 29.9403C163.136 30.1051 162.829 30.1875 162.494 30.1875Z" fill="#2F3A8F"/>
</svg>
